<svg display="block" role="presentation" viewBox="0 0 113 40" xmlns="http://www.w3.org/2000/svg"><defs ><linearGradient id="bqvZX7jNV-3942953193-linear-gradient" x1="0.28954213847863364" x2="0.7104578615213664" y1="0" y2="1"><stop offset="0" stop-color="rgb(61, 3, 12)"/><stop offset="1" stop-color="rgb(186, 20, 26)"/></linearGradient><linearGradient id="w6IWKNNuw-3942953193-linear-gradient" x1="0.12149340379715046" x2="0.8785065962028495" y1="1" y2="0"><stop offset="0" stop-color="rgb(20, 21, 23)"/><stop offset="1" stop-color="rgb(167, 168, 168)"/></linearGradient><linearGradient id="AyFcBYodU-3942953193-linear-gradient" x1="0" x2="1" y1="0.4466146543498045" y2="0.5533853456501955"><stop offset="0" stop-color="rgb(0, 50, 132)"/><stop offset="1" stop-color="rgb(135, 201, 225)"/></linearGradient><linearGradient id="OF2xdUstc-3942953193-linear-gradient" x1="0.27517426974504433" x2="0.7248257302549557" y1="0" y2="1"><stop offset="0" stop-color="rgb(0, 82, 109)"/><stop offset="1" stop-color="rgb(153, 212, 192)"/></linearGradient><linearGradient id="Mug6rSWdF-3942953193-linear-gradient" x1="0" x2="1" y1="0.9546409861048151" y2="0.045359013895184985"><stop offset="0" stop-color="rgb(138, 144, 196)"/><stop offset="1" stop-color="rgb(41, 13, 77)"/></linearGradient><linearGradient id="ZUqvV3SGh-3942953193-linear-gradient" x1="5.551115123125783e-17" x2="1" y1="0.450210733213412" y2="0.549789266786588"><stop offset="0" stop-color="rgb(252, 196, 114)"/><stop offset="1" stop-color="rgb(186, 20, 26)"/></linearGradient></defs><g d="M 46.657 17.731 L 44.172 17.731 L 44.172 7.666 L 46.657 7.666 Z M 48.113 14.031 C 48.113 12.837 48.431 11.923 49.067 11.289 C 49.703 10.655 50.617 10.338 51.81 10.338 L 53.599 10.338 L 53.599 7.666 L 56.054 7.666 L 56.054 17.731 L 51.81 17.731 C 50.617 17.731 49.703 17.415 49.067 16.78 C 48.431 16.146 48.113 15.23 48.113 14.031 Z M 50.627 14.032 C 50.627 14.683 50.778 15.158 51.078 15.46 C 51.379 15.76 51.854 15.911 52.505 15.911 L 53.599 15.911 L 53.599 12.151 L 52.505 12.151 C 51.854 12.151 51.379 12.302 51.078 12.603 C 50.778 12.904 50.627 13.38 50.627 14.031 Z M 57.94 13.616 C 58.349 13.207 58.933 13.001 59.692 13.001 L 62.48 13.001 L 62.48 12.913 C 62.48 12.636 62.422 12.44 62.306 12.324 C 62.19 12.209 61.994 12.151 61.718 12.151 L 57.843 12.151 L 57.843 10.337 L 61.843 10.337 C 62.562 10.337 63.149 10.446 63.603 10.663 C 64.056 10.88 64.392 11.214 64.608 11.666 C 64.825 12.118 64.933 12.704 64.933 13.424 L 64.933 17.731 L 59.691 17.731 C 58.932 17.731 58.347 17.527 57.938 17.117 C 57.1 16.278 57.103 14.455 57.94 13.616 Z M 59.81 15.37 C 59.81 15.553 59.86 15.693 59.961 15.792 C 60.062 15.891 60.204 15.94 60.387 15.94 L 62.509 15.94 L 62.509 14.793 L 60.387 14.793 C 60.205 14.793 60.062 14.843 59.961 14.945 C 59.86 15.046 59.81 15.187 59.81 15.37 Z M 69.598 12.218 L 68.933 12.218 L 68.933 17.731 L 66.485 17.731 L 66.485 10.338 L 70.448 10.338 C 71.04 10.338 71.514 10.421 71.872 10.586 C 72.229 10.751 72.49 11.011 72.655 11.367 C 72.82 11.722 72.903 12.196 72.903 12.788 L 72.903 14.031 L 70.448 14.031 L 70.448 13.062 C 70.448 12.745 70.386 12.526 70.263 12.403 C 70.14 12.28 69.918 12.218 69.597 12.218 Z M 74.25 13.616 C 74.659 13.207 75.244 13.001 76.003 13.001 L 79.478 13.001 L 79.478 12.913 C 79.478 12.636 79.42 12.44 79.305 12.324 C 79.189 12.209 78.304 12.151 78.028 12.151 L 74.153 12.151 L 74.153 10.337 L 78.842 10.337 C 79.562 10.337 80.148 10.446 80.602 10.663 C 81.055 10.88 81.391 11.214 81.607 11.666 C 81.824 12.118 81.933 12.704 81.933 13.424 L 81.933 17.731 L 76.002 17.731 C 75.243 17.731 74.658 17.527 74.249 17.117 C 73.411 16.278 73.413 14.455 74.25 13.616 Z M 76.12 15.37 C 76.12 15.553 76.171 15.693 76.272 15.792 C 76.373 15.891 76.515 15.94 76.698 15.94 L 79.508 15.94 L 79.508 14.793 L 76.698 14.793 C 76.515 14.793 76.373 14.843 76.272 14.945 C 76.171 15.046 76.12 15.187 76.12 15.37 Z M 84.139 16.755 C 83.983 16.414 83.907 15.953 83.907 15.371 L 83.907 12.152 L 82.878 12.152 L 82.878 10.338 L 83.907 10.338 L 83.907 8.362 L 86.361 8.362 L 86.361 10.338 L 88.631 10.338 L 88.631 12.152 L 86.361 12.152 L 86.361 15.245 C 86.361 15.487 86.412 15.658 86.513 15.759 C 86.614 15.86 86.785 15.911 87.027 15.911 L 88.661 15.911 L 88.661 17.731 L 86.265 17.731 C 85.684 17.731 85.222 17.654 84.883 17.498 C 84.542 17.343 84.295 17.095 84.14 16.755 Z M 89.363 14.031 C 89.363 12.837 89.681 11.923 90.317 11.289 C 90.953 10.655 91.867 10.338 93.06 10.338 L 96.21 10.338 L 96.21 12.152 L 93.423 12.152 C 92.905 12.152 92.53 12.231 92.299 12.392 C 92.067 12.553 91.927 12.795 91.877 13.121 L 96.151 13.121 L 96.151 14.912 L 91.877 14.912 C 91.912 15.223 92.05 15.467 92.292 15.644 C 92.533 15.822 92.91 15.911 93.423 15.911 L 96.269 15.911 L 96.269 17.731 L 93.06 17.731 C 91.867 17.731 90.953 17.415 90.317 16.78 C 89.681 16.146 89.363 15.23 89.363 14.031 Z M 97.392 14.031 C 97.392 12.837 97.71 11.923 98.346 11.289 C 98.982 10.655 99.896 10.338 101.089 10.338 L 103.966 10.338 L 103.966 12.181 L 101.754 12.181 C 101.104 12.181 100.633 12.326 100.342 12.617 C 100.051 12.908 99.906 13.38 99.906 14.031 C 99.906 14.682 100.051 15.154 100.342 15.445 C 100.634 15.736 101.104 15.881 101.754 15.881 L 104.061 15.881 L 104.061 17.731 L 101.089 17.731 C 99.896 17.731 98.982 17.415 98.346 16.78 C 97.71 16.146 97.392 15.23 97.392 14.031 Z M 107.788 12.218 L 107.788 17.731 L 105.34 17.731 L 105.34 7.666 L 107.788 7.666 L 107.788 10.338 L 109.909 10.338 C 110.629 10.338 111.216 10.447 111.67 10.664 C 112.123 10.881 112.458 11.215 112.675 11.667 C 112.892 12.119 113 12.704 113 13.425 L 113 17.732 L 110.545 17.732 L 110.545 13.425 C 110.545 13 110.449 12.693 110.257 12.503 C 110.064 12.313 109.756 12.218 109.333 12.218 Z M 51.586 24.994 C 51.942 25.065 52.139 25.331 52.139 25.739 L 52.139 27.388 L 48.817 27.388 L 48.817 26.537 L 51.302 26.537 L 51.302 26.168 C 51.302 25.918 51.163 25.812 50.92 25.812 L 49.165 25.812 L 49.165 25.162 C 49.165 25.023 49.195 24.91 49.256 24.823 C 49.316 24.736 49.431 24.635 49.601 24.518 L 50.988 23.586 L 50.988 24.478 L 50.177 24.974 L 51.185 24.974 C 51.319 24.974 51.453 24.967 51.586 24.994 Z M 63.899 23.734 C 63.809 23.889 63.683 24.019 63.53 24.113 C 63.376 24.21 63.208 24.258 63.025 24.258 C 62.842 24.258 62.671 24.21 62.513 24.113 C 62.354 24.017 62.228 23.891 62.134 23.734 C 62.04 23.578 61.993 23.415 61.993 23.245 C 61.993 23.057 62.039 22.883 62.134 22.722 C 62.225 22.564 62.355 22.433 62.513 22.34 C 62.671 22.246 62.842 22.199 63.025 22.199 C 63.204 22.198 63.381 22.247 63.534 22.34 C 63.69 22.434 63.813 22.562 63.903 22.722 L 63.902 22.722 C 63.991 22.883 64.036 23.057 64.036 23.245 C 64.036 23.415 63.99 23.578 63.899 23.734 Z M 66.313 23.734 C 66.22 23.89 66.096 24.017 65.941 24.113 C 65.787 24.21 65.623 24.258 65.449 24.258 C 65.256 24.258 65.08 24.21 64.916 24.113 C 64.753 24.017 64.623 23.891 64.524 23.734 C 64.426 23.578 64.376 23.415 64.376 23.245 C 64.376 23.057 64.424 22.883 64.52 22.722 C 64.616 22.562 64.746 22.434 64.912 22.34 C 65.077 22.246 65.256 22.199 65.448 22.199 C 65.622 22.199 65.787 22.246 65.944 22.34 C 66.101 22.434 66.224 22.562 66.316 22.722 L 66.317 22.722 C 66.408 22.883 66.454 23.057 66.454 23.245 C 66.454 23.415 66.408 23.578 66.313 23.734 Z M 67.606 34.337 L 66.702 34.337 L 66.702 32.332 L 67.385 32.332 C 67.653 32.332 67.866 32.234 68.025 32.037 C 68.183 31.84 68.263 31.597 68.263 31.306 L 68.263 25.205 L 70.359 25.205 L 70.359 31.373 C 70.359 32.308 70.133 33.035 69.679 33.556 C 69.225 34.076 68.535 34.337 67.606 34.337 Z M 72.566 22.201 L 74.663 22.201 L 74.663 31.36 L 72.566 31.36 Z M 76.651 31.36 L 76.651 29.408 L 81.908 29.408 L 81.908 28.175 C 81.908 27.799 81.826 27.535 81.661 27.384 C 81.495 27.232 81.356 27.155 80.968 27.155 L 77.657 27.155 L 77.657 25.204 L 81.393 25.204 C 83.139 25.204 84.013 26.107 84.013 27.913 L 84.013 31.36 Z M 87.154 32.889 C 87.113 32.914 87.092 32.971 87.092 33.062 L 87.092 33.697 L 88.126 33.697 L 88.126 34.336 L 85.969 34.336 L 85.969 33.697 L 86.416 33.697 L 86.416 33.043 C 86.416 32.744 86.485 32.53 86.623 32.399 C 86.76 32.269 86.993 32.204 87.319 32.204 L 87.99 32.204 L 87.99 32.852 L 87.371 32.852 C 87.268 32.852 87.195 32.864 87.153 32.889 Z M 85.969 22.201 L 88.066 22.201 L 88.066 31.36 L 85.969 31.36 Z M 44.808 30.672 C 44.384 30.213 44.172 29.542 44.172 28.656 L 44.172 26.551 L 46.269 26.551 L 46.269 28.395 C 46.269 28.766 46.352 29.027 46.517 29.179 C 46.682 29.331 46.957 29.407 47.341 29.407 L 55.236 29.407 L 55.236 22.199 L 57.333 22.199 L 57.333 29.407 L 58.231 29.407 C 58.251 29.407 58.272 29.408 58.292 29.409 L 61.118 29.409 L 63.315 29.409 L 63.315 25.205 L 65.384 25.205 L 65.384 31.36 C 59.187 31.36 52.989 31.359 46.791 31.359 C 45.893 31.359 45.232 31.13 44.808 30.672 Z M 28.843 15.287 C 31.156 14.604 33.376 12.922 34.681 10.916 C 34.893 10.584 35.087 10.246 35.244 9.9 C 35.796 10.839 36.088 11.909 36.087 12.998 L 36.087 26.998 C 36.087 28.179 35.747 29.335 35.135 30.301 C 34.747 30.22 34.366 30.139 33.988 30.051 C 31.532 29.474 29.541 28.556 27.598 27.159 L 27.792 27.047 C 28.442 26.673 28.843 25.982 28.843 25.234 Z M 27.263 27.333 C 28.981 29.059 31.567 30.21 33.991 30.38 C 34.351 30.403 34.708 30.41 35.058 30.387 C 34.532 31.182 33.828 31.845 33.001 32.321 L 21.106 39.174 C 20.084 39.762 18.937 40.039 17.796 39.996 C 17.799 39.983 17.799 39.97 17.795 39.958 C 17.665 39.567 17.54 39.182 17.423 38.795 C 16.705 36.42 16.501 34.269 16.726 31.931 L 16.948 32.059 C 17.598 32.433 18.399 32.433 19.049 32.059 Z M 7.171 24.899 C 4.992 25.924 3.215 27.223 1.513 29.099 C 1.263 29.376 1.017 29.658 0.768 29.947 C 1.309 30.918 2.104 31.724 3.068 32.28 L 14.963 39.132 C 15.821 39.626 16.77 39.926 17.726 39.975 C 17.507 39.66 17.316 39.317 17.139 38.962 C 16.088 36.813 15.788 34.049 16.393 31.72 L 8.222 27.018 C 7.572 26.644 7.172 25.953 7.171 25.204 Z M 0.714 10.1 C 1.874 12.538 4.493 14.578 7.176 15.342 L 7.176 24.533 C 4.816 25.192 2.538 26.902 1.211 28.949 C 1.026 29.237 0.856 29.531 0.711 29.832 C 0.244 28.949 0 27.967 0 26.969 L 0 12.969 C 0 11.969 0.245 10.984 0.714 10.1 Z M 7.185 14.873 L 7.185 14.958 C 4.573 13.765 2.632 12.232 0.775 10.034 C 0.774 10.033 0.773 10.032 0.772 10.031 C 0.771 10.03 0.771 10.03 0.77 10.029 L 0.769 10.028 L 0.768 10.028 C 1.309 9.046 2.11 8.23 3.083 7.67 L 14.977 0.817 C 15.853 0.314 16.839 0.033 17.848 0 C 16.316 2.251 15.866 5.563 16.575 8.261 L 8.235 13.06 C 7.585 13.433 7.185 14.125 7.185 14.873 Z M 16.967 8.039 L 16.898 8.079 C 16.618 5.183 16.979 2.719 17.971 0.001 C 19.077 -0.014 20.167 0.269 21.125 0.821 L 33.02 7.673 C 33.919 8.192 34.672 8.929 35.208 9.816 C 35.2 9.82 35.193 9.826 35.187 9.833 C 34.917 10.146 34.651 10.451 34.38 10.751 C 32.711 12.587 30.97 13.87 28.849 14.882 L 28.849 14.877 C 28.849 14.128 28.448 13.437 27.798 13.063 L 19.068 8.039 C 18.417 7.665 17.617 7.665 16.967 8.039 Z" fill="transparent" height="40.000000947019615px" id="FRohbA8eD" width="113.00000089283549px"><path d="M 2.484 10.065 L 0 10.065 L 0 0 L 2.484 0 Z M 3.941 6.365 C 3.941 5.171 4.258 4.256 4.894 3.623 C 5.53 2.988 6.444 2.672 7.638 2.672 L 9.427 2.672 L 9.427 0 L 11.882 0 L 11.882 10.065 L 7.638 10.065 C 6.444 10.065 5.53 9.748 4.894 9.114 C 4.258 8.48 3.941 7.564 3.941 6.365 Z M 6.455 6.365 C 6.455 7.016 6.605 7.492 6.906 7.793 C 7.206 8.094 7.682 8.245 8.333 8.245 L 9.427 8.245 L 9.427 4.485 L 8.333 4.485 C 7.682 4.485 7.206 4.635 6.906 4.937 C 6.605 5.237 6.455 5.714 6.455 6.365 Z M 13.767 5.949 C 14.176 5.54 14.761 5.335 15.52 5.335 L 18.307 5.335 L 18.307 5.246 C 18.307 4.97 18.249 4.774 18.133 4.658 C 18.018 4.542 17.822 4.484 17.545 4.484 L 13.671 4.484 L 13.671 2.671 L 17.671 2.671 C 18.39 2.671 18.977 2.779 19.431 2.996 C 19.884 3.213 20.219 3.548 20.436 3.999 C 20.653 4.451 20.761 5.037 20.761 5.757 L 20.761 10.065 L 15.519 10.065 C 14.759 10.065 14.175 9.86 13.766 9.45 C 12.928 8.612 12.93 6.788 13.767 5.949 Z M 15.637 7.704 C 15.637 7.886 15.688 8.027 15.789 8.125 C 15.89 8.224 16.032 8.273 16.214 8.273 L 18.336 8.273 L 18.336 7.126 L 16.214 7.126 C 16.032 7.126 15.89 7.177 15.789 7.278 C 15.688 7.379 15.637 7.521 15.637 7.704 Z M 25.426 4.551 L 24.761 4.551 L 24.761 10.065 L 22.313 10.065 L 22.313 2.671 L 26.276 2.671 C 26.868 2.671 27.342 2.754 27.699 2.919 C 28.057 3.084 28.318 3.345 28.483 3.7 C 28.648 4.055 28.731 4.529 28.731 5.122 L 28.731 6.364 L 26.275 6.364 L 26.275 5.395 C 26.275 5.079 26.213 4.86 26.09 4.737 C 25.967 4.613 25.746 4.552 25.425 4.552 Z M 30.078 5.949 C 30.487 5.54 31.071 5.335 31.83 5.335 L 35.306 5.335 L 35.306 5.246 C 35.306 4.97 35.248 4.774 35.132 4.658 C 35.017 4.542 34.132 4.484 33.856 4.484 L 29.981 4.484 L 29.981 2.671 L 34.67 2.671 C 35.389 2.671 35.976 2.779 36.43 2.996 C 36.883 3.213 37.218 3.548 37.435 3.999 C 37.652 4.451 37.76 5.037 37.76 5.757 L 37.76 10.065 L 31.83 10.065 C 31.071 10.065 30.486 9.86 30.077 9.45 C 29.238 8.612 29.24 6.788 30.078 5.949 Z M 31.948 7.704 C 31.948 7.886 31.999 8.027 32.1 8.125 C 32.201 8.224 32.342 8.273 32.525 8.273 L 35.336 8.273 L 35.336 7.126 L 32.525 7.126 C 32.343 7.126 32.201 7.177 32.1 7.278 C 31.999 7.379 31.948 7.521 31.948 7.704 Z M 39.967 9.088 C 39.811 8.748 39.734 8.287 39.734 7.704 L 39.734 4.485 L 38.706 4.485 L 38.706 2.671 L 39.734 2.671 L 39.734 0.695 L 42.189 0.695 L 42.189 2.671 L 44.459 2.671 L 44.459 4.485 L 42.189 4.485 L 42.189 7.578 C 42.189 7.82 42.24 7.991 42.341 8.092 C 42.442 8.193 42.613 8.244 42.854 8.244 L 44.489 8.244 L 44.489 10.065 L 42.093 10.065 C 41.512 10.065 41.05 9.987 40.711 9.832 C 40.37 9.676 40.122 9.428 39.967 9.088 Z M 45.191 6.364 C 45.191 5.171 45.508 4.256 46.145 3.623 C 46.781 2.988 47.694 2.671 48.888 2.671 L 52.038 2.671 L 52.038 4.485 L 49.25 4.485 C 48.733 4.485 48.358 4.565 48.127 4.726 C 47.895 4.886 47.754 5.129 47.705 5.454 L 51.979 5.454 L 51.979 7.245 L 47.705 7.245 C 47.74 7.556 47.877 7.8 48.119 7.978 C 48.36 8.155 48.737 8.244 49.25 8.244 L 52.096 8.244 L 52.096 10.065 L 48.888 10.065 C 47.694 10.065 46.781 9.748 46.145 9.114 C 45.508 8.479 45.191 7.564 45.191 6.364 Z M 53.22 6.364 C 53.22 5.171 53.537 4.256 54.173 3.623 C 54.81 2.988 55.724 2.671 56.916 2.671 L 59.793 2.671 L 59.793 4.514 L 57.582 4.514 C 56.931 4.514 56.461 4.66 56.17 4.951 C 55.879 5.242 55.734 5.713 55.734 6.364 C 55.734 7.016 55.879 7.487 56.17 7.778 C 56.461 8.07 56.931 8.215 57.582 8.215 L 59.889 8.215 L 59.889 10.065 L 56.916 10.065 C 55.724 10.065 54.81 9.748 54.173 9.114 C 53.537 8.479 53.22 7.564 53.22 6.364 Z M 63.615 4.551 L 63.615 10.065 L 61.168 10.065 L 61.168 0 L 63.615 0 L 63.615 2.672 L 65.737 2.672 C 66.457 2.672 67.043 2.78 67.497 2.997 C 67.95 3.214 68.286 3.549 68.503 4 C 68.719 4.452 68.828 5.038 68.828 5.758 L 68.828 10.066 L 66.373 10.066 L 66.373 5.758 C 66.373 5.334 66.277 5.027 66.085 4.836 C 65.892 4.646 65.584 4.551 65.16 4.551 Z M 7.413 17.327 C 7.77 17.398 7.967 17.664 7.967 18.073 L 7.967 19.722 L 4.644 19.722 L 4.644 18.87 L 7.129 18.87 L 7.129 18.502 C 7.129 18.252 6.991 18.146 6.748 18.146 L 4.993 18.146 L 4.993 17.495 C 4.993 17.357 5.023 17.244 5.083 17.157 C 5.144 17.069 5.259 16.968 5.428 16.852 L 6.815 15.92 L 6.815 16.811 L 6.005 17.308 L 7.012 17.308 C 7.147 17.308 7.28 17.301 7.413 17.327 Z M 19.726 16.068 C 19.637 16.222 19.51 16.353 19.358 16.447 C 19.204 16.543 19.035 16.591 18.852 16.591 C 18.67 16.591 18.499 16.544 18.34 16.447 C 18.182 16.351 18.056 16.225 17.961 16.068 C 17.868 15.912 17.821 15.748 17.821 15.579 C 17.821 15.391 17.867 15.216 17.961 15.056 C 18.052 14.898 18.183 14.766 18.34 14.674 C 18.499 14.58 18.67 14.533 18.852 14.533 C 19.032 14.532 19.208 14.581 19.362 14.674 C 19.518 14.768 19.641 14.895 19.73 15.056 L 19.729 15.056 C 19.819 15.216 19.864 15.391 19.864 15.579 C 19.864 15.749 19.818 15.912 19.726 16.068 Z M 22.141 16.068 C 22.047 16.224 21.924 16.351 21.769 16.447 C 21.615 16.543 21.45 16.591 21.276 16.591 C 21.084 16.591 20.907 16.544 20.744 16.447 C 20.581 16.351 20.45 16.225 20.351 16.068 C 20.253 15.912 20.204 15.748 20.204 15.579 C 20.204 15.391 20.252 15.216 20.348 15.056 C 20.444 14.895 20.574 14.768 20.74 14.674 C 20.905 14.58 21.084 14.533 21.276 14.533 C 21.45 14.533 21.615 14.58 21.771 14.674 C 21.928 14.768 22.051 14.895 22.144 15.056 L 22.144 15.056 C 22.236 15.216 22.282 15.391 22.282 15.579 C 22.282 15.749 22.235 15.912 22.141 16.068 Z M 23.433 26.67 L 22.529 26.67 L 22.529 24.665 L 23.212 24.665 C 23.481 24.665 23.693 24.567 23.852 24.371 C 24.011 24.174 24.09 23.931 24.09 23.639 L 24.09 17.538 L 26.187 17.538 L 26.187 23.707 C 26.187 24.641 25.961 25.369 25.507 25.889 C 25.053 26.41 24.362 26.67 23.433 26.67 Z M 28.394 14.535 L 30.49 14.535 L 30.49 23.694 L 28.394 23.694 Z M 32.478 23.693 L 32.478 21.742 L 37.736 21.742 L 37.736 20.508 C 37.736 20.133 37.653 19.869 37.488 19.717 C 37.323 19.565 37.184 19.489 36.795 19.489 L 33.484 19.489 L 33.484 17.538 L 37.221 17.538 C 38.967 17.538 39.84 18.44 39.84 20.246 L 39.84 23.693 Z M 42.982 25.223 C 42.94 25.248 42.92 25.305 42.92 25.395 L 42.92 26.031 L 43.953 26.031 L 43.953 26.67 L 41.796 26.67 L 41.796 26.031 L 42.243 26.031 L 42.243 25.376 C 42.243 25.078 42.313 24.863 42.45 24.733 C 42.588 24.602 42.821 24.537 43.147 24.537 L 43.818 24.537 L 43.818 25.185 L 43.198 25.185 C 43.095 25.185 43.023 25.198 42.981 25.223 Z M 41.796 14.535 L 43.893 14.535 L 43.893 23.694 L 41.796 23.694 Z M 0.636 23.005 C 0.212 22.547 0 21.875 0 20.99 L 0 18.884 L 2.097 18.884 L 2.097 20.728 C 2.097 21.099 2.179 21.361 2.344 21.513 C 2.51 21.665 2.784 21.741 3.168 21.741 L 11.064 21.741 L 11.064 14.533 L 13.161 14.533 L 13.161 21.741 L 14.059 21.741 C 14.079 21.741 14.099 21.741 14.12 21.743 L 16.945 21.743 L 19.143 21.742 L 19.143 17.538 L 21.212 17.538 L 21.212 23.694 C 15.014 23.694 8.816 23.692 2.619 23.692 C 1.721 23.692 1.06 23.463 0.636 23.005 Z" fill="rgb(10, 28, 54)" height="26.670264508299226px" id="cIsdKNYpp" transform="translate(44.172 7.666)" width="68.82765287037455px"/><path d="M 1.245 5.387 C 3.558 4.705 5.779 3.023 7.083 1.016 C 7.295 0.685 7.489 0.347 7.646 0 C 8.199 0.94 8.49 2.009 8.49 3.099 L 8.49 17.098 C 8.49 18.279 8.149 19.435 7.537 20.401 C 7.149 20.321 6.768 20.239 6.39 20.151 C 3.934 19.574 1.943 18.656 0 17.259 L 0.194 17.147 C 0.844 16.774 1.245 16.082 1.245 15.334 Z" fill="url(#bqvZX7jNV-3942953193-linear-gradient)" height="20.4011166037119px" id="bqvZX7jNV" transform="translate(27.598 9.9)" width="8.489524097984258px"/><path d="M 10.624 0 C 12.343 1.726 14.928 2.878 17.352 3.047 C 17.712 3.07 18.069 3.077 18.419 3.054 C 17.893 3.85 17.189 4.512 16.362 4.989 L 4.467 11.841 C 3.445 12.43 2.298 12.707 1.157 12.663 C 1.16 12.651 1.16 12.638 1.156 12.626 C 1.026 12.234 0.901 11.849 0.784 11.463 C 0.066 9.087 -0.138 6.936 0.087 4.599 L 0.309 4.727 C 0.959 5.101 1.76 5.101 2.41 4.727 Z" fill="url(#w6IWKNNuw-3942953193-linear-gradient)" height="12.667401307127038px" id="w6IWKNNuw" transform="translate(16.639 27.333)" width="18.418841907865872px"/><path d="M 6.403 0 C 4.223 1.024 2.446 2.324 0.745 4.2 C 0.494 4.477 0.248 4.759 0 5.047 C 0.54 6.019 1.335 6.825 2.3 7.38 L 14.195 14.233 C 15.053 14.726 16.002 15.027 16.958 15.076 C 16.739 14.76 16.547 14.418 16.37 14.063 C 15.319 11.914 15.019 9.15 15.625 6.821 L 7.454 2.119 C 6.804 1.745 6.403 1.053 6.403 0.305 Z" fill="url(#AyFcBYodU-3942953193-linear-gradient)" height="15.075660190768758px" id="AyFcBYodU" transform="translate(0.768 24.899)" width="16.957931874424503px"/><path d="M 0.714 0 C 1.874 2.438 4.493 4.478 7.176 5.242 L 7.176 14.433 C 4.816 15.092 2.538 16.803 1.211 18.849 C 1.026 19.138 0.856 19.431 0.711 19.732 C 0.244 18.85 0 17.867 0 16.869 L 0 2.87 C 0 1.869 0.245 0.884 0.714 0 Z" fill="url(#OF2xdUstc-3942953193-linear-gradient)" height="19.731801316721487px" id="OF2xdUstc" transform="translate(0 10.1)" width="7.175984965057296px"/><path d="M 6.416 14.873 L 6.416 14.958 C 3.805 13.765 1.863 12.232 0.006 10.034 C 0.005 10.033 0.004 10.032 0.003 10.031 C 0.003 10.03 0.002 10.03 0.002 10.029 L 0.001 10.028 L 0 10.028 C 0.541 9.046 1.341 8.23 2.314 7.67 L 14.209 0.817 C 15.084 0.314 16.07 0.033 17.08 0 C 15.547 2.251 15.098 5.563 15.807 8.261 L 7.467 13.06 C 6.817 13.433 6.416 14.125 6.416 14.873 Z" fill="url(#Mug6rSWdF-3942953193-linear-gradient)" height="14.957930031722412px" id="Mug6rSWdF" transform="translate(0.768 0)" width="17.079950613943538px"/><path d="M 0.161 8.039 L 0.092 8.079 C -0.188 5.183 0.173 2.719 1.165 0.001 C 2.271 -0.014 3.361 0.269 4.319 0.821 L 16.214 7.673 C 17.113 8.192 17.866 8.929 18.402 9.816 C 18.394 9.82 18.387 9.826 18.381 9.833 C 18.111 10.146 17.845 10.451 17.574 10.751 C 15.905 12.587 14.164 13.87 12.043 14.882 L 12.043 14.877 C 12.043 14.128 11.642 13.437 10.993 13.063 L 2.262 8.039 C 1.611 7.665 0.811 7.665 0.161 8.039 Z" fill="url(#ZUqvV3SGh-3942953193-linear-gradient)" height="14.882435205849731px" id="ZUqvV3SGh" transform="translate(16.806 0)" width="18.402169313368937px"/></g></svg>